<?xml version="1.0" encoding="utf-8"?>
<!-- Generator: Adobe Illustrator 19.0.0, SVG Export Plug-In . SVG Version: 6.00 Build 0)  -->
<svg version="1.1" id="Layer_1" xmlns="http://www.w3.org/2000/svg" xmlns:xlink="http://www.w3.org/1999/xlink" x="0px" y="0px"
	 viewBox="0 0 612 400" style="enable-background:new 0 0 612 400;" xml:space="preserve">
<style type="text/css">
	.st0{fill:none;}
	.st1{fill:url(#XMLID_4_);}
	.st2{fill:url(#XMLID_5_);}
	.st3{fill:url(#XMLID_6_);}
	.st4{fill:url(#XMLID_7_);}
</style>
<rect id="_x3C_Slice_x3E_" x="-37" y="-10" class="st0" width="37" height="229"/>
<rect id="_x3C_Slice_x3E__1_" x="-19" y="75" class="st0" width="12" height="50"/>
<g id="XMLID_1_">
	<path id="XMLID_2_" class="st0" d="M591.7,114.2c-4.4-2.1-9.1-4-13.9-5.5c-65.7-12.8-162.6,17.7-268,68.4
		c-93.4,45-247.6-8.6-309.8-33.8V400h612V124.1v-0.1C607.1,121.7,600.5,118.5,591.7,114.2z"/>
	
		<linearGradient id="XMLID_4_" gradientUnits="userSpaceOnUse" x1="566.3305" y1="284.8719" x2="-277.8652" y2="-202.5247" gradientTransform="matrix(0.9989 -4.695336e-002 4.695336e-002 0.9989 -6.1234 14.723)">
		<stop  offset="0" style="stop-color:#E1D3E8"/>
		<stop  offset="0.5537" style="stop-color:#4F70B6"/>
		<stop  offset="0.8371" style="stop-color:#4F70B6"/>
	</linearGradient>
	<path id="XMLID_13_" class="st1" d="M309.8,177.1c105.4-50.8,202.3-81.2,268-68.4c-60.9-19.5-157.2,5.1-263.1,50.1
		C200.3,207.5,0,101.2,0,101.2v42.2C62.2,168.6,216.4,222.1,309.8,177.1z"/>
	<line id="XMLID_14_" class="st0" x1="612" y1="124.1" x2="612" y2="124.1"/>
	<linearGradient id="XMLID_5_" gradientUnits="userSpaceOnUse" x1="587.0441" y1="-115.7466" x2="600.1072" y2="267.1363">
		<stop  offset="0" style="stop-color:#5C9FD6"/>
		<stop  offset="0.4267" style="stop-color:#4162A6"/>
		<stop  offset="0.4495" style="stop-color:#4060A4"/>
		<stop  offset="1" style="stop-color:#2D2D85"/>
	</linearGradient>
	<path id="XMLID_15_" class="st2" d="M577.8,108.7c4.9,1.6,9.5,3.4,13.9,5.5c8.7,4.2,15.3,7.4,20.3,9.8v-3.8
		c-3.1-1.3-6.4-2.8-10.2-4.4C594.4,112.7,586.3,110.4,577.8,108.7z"/>
	
		<linearGradient id="XMLID_6_" gradientUnits="userSpaceOnUse" x1="603.7674" y1="220.0292" x2="-240.4283" y2="-267.3674" gradientTransform="matrix(0.9989 -4.695336e-002 4.695336e-002 0.9989 -6.1234 14.723)">
		<stop  offset="0" style="stop-color:#E1D3E8"/>
		<stop  offset="0.5537" style="stop-color:#4F70B6"/>
		<stop  offset="0.8371" style="stop-color:#4F70B6"/>
	</linearGradient>
	<path id="XMLID_17_" class="st3" d="M314.7,158.8c105.9-45,202.2-69.6,263.1-50.1c8.5,1.7,16.6,4.1,24,7.2
		c3.8,1.6,7.1,3.1,10.2,4.4V0H0v101.2C0,101.2,200.3,207.5,314.7,158.8z"/>
	<linearGradient id="XMLID_7_" gradientUnits="userSpaceOnUse" x1="300.6587" y1="-105.9758" x2="313.7217" y2="276.9071">
		<stop  offset="0" style="stop-color:#5C9FD6"/>
		<stop  offset="0.4267" style="stop-color:#4162A6"/>
		<stop  offset="0.4495" style="stop-color:#4060A4"/>
		<stop  offset="1" style="stop-color:#2D2D85"/>
	</linearGradient>
	<path id="XMLID_16_" class="st4" d="M314.7,158.8c105.9-45,202.2-69.6,263.1-50.1c8.5,1.7,16.6,4.1,24,7.2
		c3.8,1.6,7.1,3.1,10.2,4.4V0H0v101.2C0,101.2,200.3,207.5,314.7,158.8z"/>
</g>
</svg>
